<?xml version="1.0" encoding="iso-8859-1"?>
<!-- Generator: Adobe Illustrator 19.0.0, SVG Export Plug-In . SVG Version: 6.00 Build 0)  -->
<svg version="1.1" id="Layer_1" xmlns="http://www.w3.org/2000/svg" xmlns:xlink="http://www.w3.org/1999/xlink" x="0px" y="0px"
	 viewBox="0 0 406.02 406.02" style="enable-background:new 0 0 406.02 406.02;" xml:space="preserve">
<g>
	<polygon style="fill:#F7CF52;" points="306.79,196.3 275.26,250.23 257.9,279.93 295.21,279.93 189.71,406.02 229.59,299.23 
		190.99,299.23 207.47,250.41 225.73,196.3 	"/>
	<path style="fill:#1EA6C6;" d="M347.16,126.42c24.32,9.03,41.66,32.45,41.66,59.92c0,35.28-28.61,63.89-63.89,63.89h-49.67
		l31.53-53.93h-81.06l-18.26,54.11l-0.52-0.18H97.06c-44.11,0-79.86-35.76-79.86-79.87c0-38.15,26.75-70.04,62.51-77.97
		c-0.01-0.52-0.02-1.04-0.02-1.57C79.69,40.66,120.35,0,170.51,0c43.22,0,79.38,30.2,88.56,70.65c8.55-4.79,18.41-7.53,28.91-7.53
		c32.76,0,59.33,26.56,59.33,59.32C347.31,123.78,347.25,125.11,347.16,126.42z"/>
</g>
<g>
</g>
<g>
</g>
<g>
</g>
<g>
</g>
<g>
</g>
<g>
</g>
<g>
</g>
<g>
</g>
<g>
</g>
<g>
</g>
<g>
</g>
<g>
</g>
<g>
</g>
<g>
</g>
<g>
</g>
</svg>
